<svg width="52" height="53" viewBox="0 0 52 53" fill="none" xmlns="http://www.w3.org/2000/svg">
<rect y="0.368652" width="52" height="52" rx="26" fill="#FFF4F1"/>
<rect x="8" y="8.36865" width="36" height="36" rx="18" fill="#F3606E"/>
<path fill-rule="evenodd" clip-rule="evenodd" d="M18.9167 24.9666C18.9167 21.1334 22.12 18.0352 25.9946 18.0352C29.8802 18.0352 33.0834 21.1334 33.0834 24.9666C33.0834 26.8982 32.3809 28.6915 31.2247 30.2115C29.9491 31.8881 28.3769 33.3489 26.6072 34.4955C26.2022 34.7605 25.8366 34.7805 25.3921 34.4955C23.6124 33.3489 22.0402 31.8881 20.7755 30.2115C19.6184 28.6915 18.9167 26.8982 18.9167 24.9666ZM23.6619 25.1824C23.6619 26.4666 24.7098 27.4765 25.9946 27.4765C27.2803 27.4765 28.3382 26.4666 28.3382 25.1824C28.3382 23.9083 27.2803 22.8492 25.9946 22.8492C24.7098 22.8492 23.6619 23.9083 23.6619 25.1824Z" fill="white"/>
</svg>
